<svg xmlns="http://www.w3.org/2000/svg" xmlns:xlink="http://www.w3.org/1999/xlink" width="40" height="40" viewBox="0 0 40 40">
  <defs>
    <clipPath id="clip-path">
      <rect id="長方形_8" data-name="長方形 8" width="40" height="40" transform="translate(96 2386)" fill="#fff"/>
    </clipPath>
  </defs>
  <g id="マスクグループ_7" data-name="マスクグループ 7" transform="translate(-96 -2386)" opacity="0.6" clip-path="url(#clip-path)">
    <path id="iconmonstr-twitter-5" d="M20,3.333A16.667,16.667,0,1,1,3.333,20,16.686,16.686,0,0,1,20,3.333ZM20,0A20,20,0,1,0,40,20,20,20,0,0,0,20,0ZM30.833,14.63a8.213,8.213,0,0,1-2.357.647,4.121,4.121,0,0,0,1.805-2.27A8.211,8.211,0,0,1,27.675,14a4.105,4.105,0,0,0-6.992,3.742,11.654,11.654,0,0,1-8.457-4.287,4.109,4.109,0,0,0,1.27,5.478,4.1,4.1,0,0,1-1.857-.513A4.108,4.108,0,0,0,14.932,22.5a4.112,4.112,0,0,1-1.853.07,4.109,4.109,0,0,0,3.833,2.848,8.258,8.258,0,0,1-6.078,1.7A11.669,11.669,0,0,0,28.785,16.753,8.272,8.272,0,0,0,30.833,14.63Z" transform="translate(96 2386)"/>
  </g>
</svg>
