<svg xmlns="http://www.w3.org/2000/svg" xmlns:xlink="http://www.w3.org/1999/xlink" width="40" height="40" viewBox="0 0 40 40">
  <defs>
    <clipPath id="clip-path">
      <rect id="長方形_8" data-name="長方形 8" width="40" height="40" transform="translate(166 2386)" fill="#fff"/>
    </clipPath>
  </defs>
  <g id="マスクグループ_8" data-name="マスクグループ 8" transform="translate(-166 -2386)" opacity="0.6" clip-path="url(#clip-path)">
    <path id="iconmonstr-facebook-5" d="M20,3.333A16.667,16.667,0,1,1,3.333,20,16.686,16.686,0,0,1,20,3.333ZM20,0A20,20,0,1,0,40,20,20,20,0,0,0,20,0ZM16.667,16.667H13.333V20h3.333V30h5V20H24.7l.3-3.333H21.667V15.278c0-.8.16-1.112.93-1.112H25V10H20.993c-3,0-4.327,1.32-4.327,3.847v2.82Z" transform="translate(166 2386)"/>
  </g>
</svg>
