<svg xmlns="http://www.w3.org/2000/svg" xmlns:xlink="http://www.w3.org/1999/xlink" width="100" height="100" viewBox="0 0 100 100">
  <defs>
    <clipPath id="clip-path">
      <rect id="長方形_4" data-name="長方形 4" width="100" height="100" transform="translate(138 803)" fill="#fff" stroke="#707070" stroke-width="1"/>
    </clipPath>
  </defs>
  <g id="マスクグループ_2" data-name="マスクグループ 2" transform="translate(-138 -803)" clip-path="url(#clip-path)">
    <g id="ワードプレスのアイコン" transform="translate(138 803)">
      <path id="パス_10" data-name="パス 10" d="M50,0a50,50,0,1,0,50,50A50.051,50.051,0,0,0,50,0ZM82.175,82.172A45.447,45.447,0,1,1,95.524,50,45.372,45.372,0,0,1,82.175,82.172Z" fill="#4b4b4b"/>
      <path id="パス_11" data-name="パス 11" d="M14.068,33.957h-.282a39.617,39.617,0,0,0,18.7,51.573L14.07,33.957Z" fill="#4b4b4b"/>
      <path id="パス_12" data-name="パス 12" d="M72.493,35.623c-3.415-4.776-2.908-14.539,3.371-15.608A39.584,39.584,0,0,0,16.6,28.723H31.1v5.233H25.254L38.783,71.825l9.49-25.368L43.8,33.956H37.046V28.723H61.308v5.233h-6.32l13.644,38.2,6.914-18.471C76.772,48.7,76.055,40.619,72.493,35.623Z" fill="#4b4b4b"/>
      <path id="パス_13" data-name="パス 13" d="M86.819,35.406c-.016.15-.031.3-.053.45-.958,6.43-6.913,20.533-6.913,20.533L71.231,79.434,69.307,84.58A39.6,39.6,0,0,0,86.819,35.406Z" fill="#4b4b4b"/>
      <path id="パス_14" data-name="パス 14" d="M41.379,79.094l-3.255,8.7a39.688,39.688,0,0,0,24.791-.351L50.869,53.72Z" fill="#4b4b4b"/>
    </g>
  </g>
</svg>
