<svg xmlns="http://www.w3.org/2000/svg" xmlns:xlink="http://www.w3.org/1999/xlink" width="100" height="100" viewBox="0 0 100 100">
  <defs>
    <clipPath id="clip-path">
      <rect id="長方形_4" data-name="長方形 4" width="100" height="100" transform="translate(138 803)" fill="#fff" stroke="#707070" stroke-width="1"/>
    </clipPath>
  </defs>
  <g id="マスクグループ_3" data-name="マスクグループ 3" transform="translate(-138 -803)" clip-path="url(#clip-path)">
    <g id="エンベットアイコン" transform="translate(138 803)">
      <path id="パス_15" data-name="パス 15" d="M29.986,27.136a.284.284,0,0,0-.161.05L.125,47.46A.286.286,0,0,0,0,47.7v5.453a.283.283,0,0,0,.125.236l29.7,20.276a.284.284,0,0,0,.161.05.308.308,0,0,0,.134-.033.288.288,0,0,0,.153-.255V64.738a.282.282,0,0,0-.125-.235L9.525,50.423,30.147,36.347a.291.291,0,0,0,.125-.239V27.424a.284.284,0,0,0-.153-.254A.274.274,0,0,0,29.986,27.136Z" fill="#4b4b4b"/>
      <path id="パス_16" data-name="パス 16" d="M99.875,47.46l-29.7-20.274a.286.286,0,0,0-.162-.05.271.271,0,0,0-.134.035.284.284,0,0,0-.153.254v8.687a.285.285,0,0,0,.125.236L90.475,50.423,69.853,64.5a.284.284,0,0,0-.125.238v8.684a.288.288,0,0,0,.153.255.308.308,0,0,0,.134.033.285.285,0,0,0,.162-.05l29.7-20.276a.283.283,0,0,0,.125-.236V47.7A.286.286,0,0,0,99.875,47.46Z" fill="#4b4b4b"/>
      <path id="パス_17" data-name="パス 17" d="M63.576,22.382h-8.3a.285.285,0,0,0-.271.192L36.153,77.239a.285.285,0,0,0,.038.258.289.289,0,0,0,.234.121h8.3A.286.286,0,0,0,45,77.425l18.85-54.662a.287.287,0,0,0-.272-.381Z" fill="#4b4b4b"/>
    </g>
  </g>
</svg>
