<svg xmlns="http://www.w3.org/2000/svg" xmlns:xlink="http://www.w3.org/1999/xlink" width="100" height="100" viewBox="0 0 100 100">
  <defs>
    <clipPath id="clip-path">
      <rect id="長方形_4" data-name="長方形 4" width="100" height="100" transform="translate(124 827)" fill="#fff" stroke="#707070" stroke-width="1"/>
    </clipPath>
  </defs>
  <g id="マスクグループ_1" data-name="マスクグループ 1" transform="translate(-124 -827)" clip-path="url(#clip-path)">
    <g id="パレットのアイコン9" transform="translate(128.96 827)">
      <path id="パス_1" data-name="パス 1" d="M31.915,57.049a7.467,7.467,0,1,0-3.4-2.548A7.453,7.453,0,0,0,31.915,57.049Zm-1.352-9.4a4.591,4.591,0,0,1,3.725-2.208,4.555,4.555,0,0,1,2.608.666,4.628,4.628,0,0,1,1.764,1.95,4.621,4.621,0,0,1-.222,4.381A4.642,4.642,0,0,1,36.487,54.2a4.627,4.627,0,0,1-4.382-.222,4.65,4.65,0,0,1-1.764-1.951,4.62,4.62,0,0,1,.223-4.381Z" transform="translate(-10.707 -9.052)" fill="#4b4b4b"/>
      <path id="パス_2" data-name="パス 2" d="M73.882,98.656a5.87,5.87,0,1,0,5.593-6.135A5.869,5.869,0,0,0,73.882,98.656Z" transform="translate(-20.665 -19.668)" fill="#4b4b4b"/>
      <path id="パス_3" data-name="パス 3" d="M58.3,97.273a5.266,5.266,0,1,0,5.5,5.018A5.267,5.267,0,0,0,58.3,97.273Z" transform="translate(-16.286 -20.679)" fill="#4b4b4b"/>
      <path id="パス_4" data-name="パス 4" d="M38.079,98.251a4.689,4.689,0,1,0-4.9-4.467A4.689,4.689,0,0,0,38.079,98.251Z" transform="translate(-12.012 -18.895)" fill="#4b4b4b"/>
      <path id="パス_5" data-name="パス 5" d="M24.882,77.075a3.669,3.669,0,1,0,3.5-3.834A3.667,3.667,0,0,0,24.882,77.075Z" transform="translate(-10.249 -15.57)" fill="#4b4b4b"/>
      <path id="パス_6" data-name="パス 6" d="M63.829,63.284l-.039-.121-6.006-4.236-.126,0c-3.023.067-6.213,1.963-8.321,4.955a30.575,30.575,0,0,0-3.886,8.6,42.492,42.492,0,0,1-2.27,5.9,14.108,14.108,0,0,1-1.3,2.242l-.5.591.549.232c2.555,1.078,6.22.785,10.053-.8a23.094,23.094,0,0,0,9.976-7.873C64.069,69.794,64.785,66.154,63.829,63.284ZM58.445,73.972c-.11.089-.227.185-.347.294-1.344,1.208-2.871.968-1.65-1.284s-.39-2.706-1.939-1.127c-1.944,1.98-2.586.692-2.147-.319s1.747-2.48.89-3.2c-.517-.435-1.355.413-2.671,1.589-.754.675-2.3.694-1.349-1.975A18.391,18.391,0,0,1,50.912,65,8.494,8.494,0,0,1,56.757,61.3L61.9,64.927a8.5,8.5,0,0,1-1.515,6.748A18.177,18.177,0,0,1,58.445,73.972Z" transform="translate(-13.757 -12.528)" fill="#4b4b4b"/>
      <path id="パス_7" data-name="パス 7" d="M66.3,53.565l2.771,1.951a3.368,3.368,0,0,0,3.285.13,7.647,7.647,0,0,0,3.3-2.875l3.9-5.96-8.575-6.048-4.3,5.677a7.631,7.631,0,0,0-1.6,4.072A3.373,3.373,0,0,0,66.3,53.565Z" transform="translate(-18.793 -8.666)" fill="#4b4b4b"/>
      <path id="パス_8" data-name="パス 8" d="M101.347,6.9c1.615-2.468,1.626-5.286.029-6.414l-.021-.012c-1.6-1.127-4.247-.17-6.029,2.181L74.521,30.08l8.43,5.943Z" transform="translate(-20.802 0)" fill="#4b4b4b"/>
      <path id="パス_9" data-name="パス 9" d="M96.354,56.04l-.018-.432A24.3,24.3,0,0,0,94.574,47.2a14.638,14.638,0,0,0-3.941-5.512,12.061,12.061,0,0,0-3.4-2.051,11.6,11.6,0,0,0-4.272-.814c-.176,0-.35,0-.525.012a10.981,10.981,0,0,0-3.99.937,9.412,9.412,0,0,0-3.239,2.357,14.609,14.609,0,0,1-7.065,4.356l-1.857,2.836a12.189,12.189,0,0,1-1.937,2.263c.179,0,.359,0,.539-.013A19.487,19.487,0,0,0,78.6,45.11a5,5,0,0,1,1.7-1.218,6.494,6.494,0,0,1,2.349-.546l.316-.006a7.1,7.1,0,0,1,2.977.654,8.168,8.168,0,0,1,3.07,2.52,11.9,11.9,0,0,1,1.646,3.054,20.662,20.662,0,0,1,1.166,6.25l.015.4a41.494,41.494,0,0,1-6.006,22.993A40.487,40.487,0,0,1,68.787,94.7,40.019,40.019,0,0,1,53.223,98.6q-.956.044-1.9.044A40.5,40.5,0,0,1,10.862,59.987a39.761,39.761,0,0,1,7.194-24.8,42.56,42.56,0,0,1,20.3-15.479,5.38,5.38,0,0,1,1.554-.288c.1,0,.2-.007.306-.007a6.434,6.434,0,0,1,1.872.275,4.882,4.882,0,0,1,1.822.985,3.876,3.876,0,0,1,.832,1.046A5.02,5.02,0,0,1,45.3,23.9a9,9,0,0,1-.148,1.984c-.08.456-.179.934-.291,1.473-.108.521-.222,1.07-.325,1.648a16.865,16.865,0,0,0-.3,3.737,19.648,19.648,0,0,0,3.882,10.88c.245.328.5.643.766.954a11.17,11.17,0,0,1,1.88-5.22c-.182-.319-.386-.622-.545-.955a15.144,15.144,0,0,1-1.47-5.868,12.226,12.226,0,0,1,.232-2.738c.083-.477.185-.971.306-1.549.1-.5.212-1.027.31-1.574a13.549,13.549,0,0,0,.211-2.984,9.355,9.355,0,0,0-1.352-4.56,8.549,8.549,0,0,0-3.042-2.9,9.864,9.864,0,0,0-2.426-.981A11.169,11.169,0,0,0,40.2,14.9c-.167,0-.332,0-.5.011a9.912,9.912,0,0,0-2.881.554A46.483,46.483,0,0,0,14.352,32.6a44.165,44.165,0,0,0-8,27.6,45.009,45.009,0,0,0,44.965,42.97q1.055,0,2.119-.05a44.557,44.557,0,0,0,31.1-14.652A45.744,45.744,0,0,0,96.354,56.04Z" transform="translate(-6.299 -3.167)" fill="#4b4b4b"/>
    </g>
  </g>
</svg>
